<?xml version="1.0" standalone="no"?>
<svg xmlns="http://www.w3.org/2000/svg" width="1120" height="529.755859375"><g transform="translate(70,20)"><g class="x axis" transform="translate(0,400)" fill="none" font-size="10" font-family="sans-serif" text-anchor="middle"><path class="domain" stroke="#000" d="M0.5,6V0.5H1000.5V6"/><g class="tick" opacity="1" transform="translate(261.904761904762,0)"><line stroke="#000" y2="6"/><text fill="#000" y="9" dy="-0.5em" dx="-.8em" transform="rotate(-90)" style="text-anchor: end;">CD (n=3)</text></g><g class="tick" opacity="1" transform="translate(738.0952380952381,0)"><line stroke="#000" y2="6"/><text fill="#000" y="9" dy="-0.5em" dx="-.8em" transform="rotate(-90)" style="text-anchor: end;">nonIBD (n=4)</text></g></g><g class="y axis" fill="none" font-size="10" font-family="sans-serif" text-anchor="end"><path class="domain" stroke="#000" d="M-6,400.5H0.5V0.5H-6"/><g class="tick" opacity="1" transform="translate(0,400.5)"><line stroke="#000" x2="-6"/><text fill="#000" x="-9" dy="0.32em">1.0</text></g><g class="tick" opacity="1" transform="translate(0,360.5)"><line stroke="#000" x2="-6"/><text fill="#000" x="-9" dy="0.32em">1.5</text></g><g class="tick" opacity="1" transform="translate(0,320.5)"><line stroke="#000" x2="-6"/><text fill="#000" x="-9" dy="0.32em">2.0</text></g><g class="tick" opacity="1" transform="translate(0,280.5)"><line stroke="#000" x2="-6"/><text fill="#000" x="-9" dy="0.32em">2.5</text></g><g class="tick" opacity="1" transform="translate(0,240.5)"><line stroke="#000" x2="-6"/><text fill="#000" x="-9" dy="0.32em">3.0</text></g><g class="tick" opacity="1" transform="translate(0,200.5)"><line stroke="#000" x2="-6"/><text fill="#000" x="-9" dy="0.32em">3.5</text></g><g class="tick" opacity="1" transform="translate(0,160.5)"><line stroke="#000" x2="-6"/><text fill="#000" x="-9" dy="0.32em">4.0</text></g><g class="tick" opacity="1" transform="translate(0,120.5)"><line stroke="#000" x2="-6"/><text fill="#000" x="-9" dy="0.32em">4.5</text></g><g class="tick" opacity="1" transform="translate(0,80.5)"><line stroke="#000" x2="-6"/><text fill="#000" x="-9" dy="0.32em">5.0</text></g><g class="tick" opacity="1" transform="translate(0,40.5)"><line stroke="#000" x2="-6"/><text fill="#000" x="-9" dy="0.32em">5.5</text></g><g class="tick" opacity="1" transform="translate(0,0.5)"><line stroke="#000" x2="-6"/><text fill="#000" x="-9" dy="0.32em">6.0</text></g></g><text class="x label" text-anchor="middle" transform="translate(500,499.755859375)" style="font-style: normal; font-variant-caps: normal; font-weight: normal; font-stretch: normal; font-size: 12px; line-height: normal; font-family: sans-serif;">diagnosis</text><text class="y label" text-anchor="middle" transform="translate(-50,200)rotate(-90)" style="font-style: normal; font-variant-caps: normal; font-weight: normal; font-stretch: normal; font-size: 12px; line-height: normal; font-family: sans-serif;">shannon_entropy</text><line class="center" x1="261.904761904762" y1="362.85040064" x2="261.904761904762" y2="152.46374427200004" stroke-dasharray="2,2" stroke-width="1" stroke="black"/><line class="center" x1="738.0952380952381" y1="89.20112932000006" x2="738.0952380952381" y2="10.192209063999996" stroke-dasharray="2,2" stroke-width="1" stroke="black"/><g class="outlier" transform="translate(261.904761904762,0)"/><g class="outlier" transform="translate(738.0952380952381,0)"><circle r="4" stroke-width="1" stroke="black" stroke-opacity="0.3" fill="black" fill-opacity="0.33" cx="0" cy="181.867103104"/></g><rect class="box" x="47.619047619047706" y="154.99595290000002" width="428.57142857142856" height="105.193328184" fill="white" stroke-width="1" stroke="black"/><rect class="box" x="523.8095238095239" y="69.10842925600002" width="428.57142857142856" height="43.25919350999999" fill="white" stroke-width="1" stroke="black"/><line class="median" x1="47.619047619047706" y1="157.52816152800003" x2="476.19047619047626" y2="157.52816152800003" stroke-width="1" stroke="black"/><line class="median" x1="523.8095238095239" y1="88.97414932000004" x2="952.3809523809524" y2="88.97414932000004" stroke-width="1" stroke="black"/><g class="whisker" transform="translate(154.76190476190484,0)"><line class="median" x1="0" y1="362.85040064" x2="214.28571428571428" y2="362.85040064" stroke-width="1" stroke="black"/><line class="median" x1="0" y1="152.46374427200004" x2="214.28571428571428" y2="152.46374427200004" stroke-width="1" stroke="black"/></g><g class="whisker" transform="translate(630.952380952381,0)"><line class="median" x1="0" y1="89.20112932000006" x2="214.28571428571428" y2="89.20112932000006" stroke-width="1" stroke="black"/><line class="median" x1="0" y1="10.192209063999996" x2="214.28571428571428" y2="10.192209063999996" stroke-width="1" stroke="black"/></g></g></svg>